<?xml version="1.0" encoding="UTF-8"?>
<svg width="512px" height="512px" viewBox="0 0 512 512" version="1.1" xmlns="http://www.w3.org/2000/svg" xmlns:xlink="http://www.w3.org/1999/xlink">
    <title>kalpa-icon</title>
    <defs>
        <path d="M70,0 L442,0 C480.659932,0 512,31.3400675 512,70 L512,442 C512,480.659932 480.659932,512 442,512 L70,512 C31.3400675,512 0,480.659932 0,442 L0,70 C0,31.3400675 31.3400675,0 70,0 Z" id="path-1"></path>
    </defs>
    <g id="kalpa-icon" stroke="none" fill="none" xlink:href="#path-1" fill-rule="evenodd">
        <use fill="#1F1F1F" xlink:href="#path-1"></use>
        <g id="kalpa-mark" stroke-width="1" transform="translate(106, 106)">
            <path d="M278.302854,289.170648 C278.302854,289.170648 234.02147,218.914706 269.474412,149.997609 C309.091411,72.9903828 276.701668,10.8245697 276.701668,10.8245697 L31.7817421,10.8245697 C31.7817421,10.8245697 64.1141456,72.979249 24.5292955,149.976037 C-10.9100558,218.908443 33.5882082,289.170648 33.5882082,289.170648 L278.302854,289.170648 Z" id="Path" fill="#FFD230" opacity="0.15"></path>
            <path d="M283.26753,0 L286.30139,5.8229054 C286.83223,6.84174868 287.647016,8.57621164 288.647102,10.9843878 C290.252265,14.84957 291.842679,19.3009809 293.318426,24.2968224 C298.065823,40.3681735 300.625808,58.425438 299.86865,77.9803193 C298.884735,103.391607 292.322651,129.247223 279.100009,154.949294 C278.497008,156.121471 277.916645,157.299115 277.358701,158.482162 C261.742981,191.59327 263.895675,227.357774 277.112637,261.667094 C279.431439,267.686366 281.911198,273.122359 284.378017,277.866063 C285.228956,279.502422 286.011979,280.927125 286.705123,282.126792 C287.097541,282.805974 287.356594,283.234413 287.460246,283.398865 L297.920706,299.995218 L27.6308029,299.995218 L24.4433386,294.962251 C24.192388,294.566003 23.7868658,293.898555 23.2490152,292.972179 C22.391888,291.495892 21.4475129,289.786006 20.4382053,287.854656 C17.5901309,282.404754 14.7550238,276.220873 12.1132383,269.398086 C5.68953387,252.807953 1.412137,235.120285 0.2894184,216.834789 C-1.1429766,193.505656 2.69484108,170.730797 12.8455491,149.201842 C13.5050648,147.803054 14.1906475,146.411293 14.9024514,145.026776 C26.6420826,122.191932 32.4166785,99.4318217 33.2837123,77.1198142 C33.9469234,60.0529254 31.7219553,44.3224649 27.6193085,30.4108375 C26.3700666,26.1747947 25.0408388,22.4483307 23.7263343,19.2779119 C23.2798069,18.2009444 22.872391,17.2796729 22.5160517,16.5199025 C22.3247499,16.1120175 22.2083105,15.876779 22.1787591,15.8199703 L13.9493278,0 L283.26753,0 Z M269.595932,21.6491394 L47.577822,21.6491394 L47.6392105,21.8368518 C47.7648269,22.2376033 47.8897643,22.642181 48.0139649,23.0505605 L48.3842992,24.2870807 C53.122701,40.3544839 55.6763075,58.4084086 54.9165245,77.9604548 C53.929133,103.36971 47.3695453,129.223804 34.1561121,154.925351 C33.5575081,156.089684 32.9813029,157.259405 32.4272796,158.434451 C16.824029,191.527875 19.0189503,227.276122 32.3018314,261.581057 C34.6390906,267.617362 37.1386741,273.069405 39.6252902,277.827642 L39.898563,278.346078 L260.597622,278.346078 L260.372303,277.838747 C259.389192,275.610117 258.420775,273.294995 257.475204,270.897696 L256.910668,269.449489 C250.521444,252.863989 246.27313,235.178006 245.172521,216.892659 C243.768046,193.55894 247.622863,170.780021 257.777914,149.247554 C258.441815,147.839838 259.132053,146.439239 259.848929,145.0457 C271.595769,122.212281 277.37185,99.4536405 278.235721,77.1427003 C278.896558,60.0754524 276.66627,44.3437566 272.556182,30.4298866 C271.616924,27.2502199 270.632556,24.3573768 269.643132,21.7709897 L269.595932,21.6491394 Z" id="Path" fill="#FFD700" fill-rule="nonzero"></path>
        </g>
    </g>
</svg>